<svg version="1.2" xmlns="http://www.w3.org/2000/svg" viewBox="0 0 128 128" width="128" height="128">
	<title>新建项目</title>
	<style>
		.s0 { fill: #000000 } 
		.s1 { fill: #ffffff } 
	</style>
	<path id="形状 1" class="s0" d="m124.9 69.1q2.9-1.6 3-5 0-3.5-2.9-5.1l-13.7-7.6 8-13.4q1.8-3 0-5.9-1.6-3-5-2.9l-15.6 0.2 0.2-15.6q0-3.4-2.9-5-3-1.7-5.9 0l-13.4 8-7.6-13.6q-1.6-3.1-5.1-3-3.4 0-5 2.9l-7.7 13.7-13.3-8q-3-1.8-5.9 0-3 1.6-2.9 5l0.2 15.6-15.6-0.2q-3.3 0-5.1 2.9-1.7 3.1 0.1 5.9l7.9 13.4-13.5 7.6q-3 1.5-3.1 5 0.1 3.5 3 5.1l13.7 7.6-8.1 13.4q-1.7 2.9 0.1 5.8 1.6 3.1 5 3l15.6-0.3-0.2 15.7q-0.1 3.4 2.9 5.1 3.1 1.6 5.9-0.1l13.4-7.9 7.6 13.5q1.1 2.1 3.5 2.8 0.5 0.1 1.5 0.2 3.5 0 5.1-2.9l7.6-13.7 13.4 8q3 1.8 5.9 0 3-1.6 2.9-5l-0.3-15.6 15.7 0.2q3.3 0 5.1-2.9 1.6-3.1-0.1-5.9l-7.9-13.4z"/>
	<path id="形状 2" class="s1" d="m63.5 104c-22.4 0-40.5-18.1-40.5-40.5 0-22.4 18.1-40.5 40.5-40.5 22.4 0 40.5 18.1 40.5 40.5 0 22.4-18.1 40.5-40.5 40.5z"/>
	<path id="形状 3" class="s1" d="m64 20c-2.8 0-5-2.2-5-5 0-2.8 2.2-5 5-5 2.8 0 5 2.2 5 5 0 2.8-2.2 5-5 5z"/>
	<path id="形状 3 copy" class="s1" d="m105 44c-2.8 0-5-2.2-5-5 0-2.8 2.2-5 5-5 2.8 0 5 2.2 5 5 0 2.8-2.2 5-5 5z"/>
	<path id="形状 3 copy 2" class="s1" d="m105 93c-2.8 0-5-2.2-5-5 0-2.8 2.2-5 5-5 2.8 0 5 2.2 5 5 0 2.8-2.2 5-5 5z"/>
	<path id="形状 3 copy 3" class="s1" d="m64 117c-2.8 0-5-2.2-5-5 0-2.8 2.2-5 5-5 2.8 0 5 2.2 5 5 0 2.8-2.2 5-5 5z"/>
	<path id="形状 3 copy 4" class="s1" d="m22 93c-2.8 0-5-2.2-5-5 0-2.8 2.2-5 5-5 2.8 0 5 2.2 5 5 0 2.8-2.2 5-5 5z"/>
	<path id="形状 3 copy 5" class="s1" d="m22 44c-2.8 0-5-2.2-5-5 0-2.8 2.2-5 5-5 2.8 0 5 2.2 5 5 0 2.8-2.2 5-5 5z"/>
	<path id="TU" class="s0" aria-label="TU"  d="m62.4 46.5v11.6h-8.2v-3.7h-3.1v21.6h3.3v7.9l-20.1-0.1v-7.8h3.3l0.1-21.6h-3.1v3.7h-8.3v-11.6zm-1.2 0v11.6h-8.3v-3.7h-3.1v21.6h3.4v7.8h-20.2v-7.8h3.4v-21.6h-3.1v3.7h-8.2v-11.6zm22.1 38q-7.5 0-11.7-3.3-4.1-3.3-4-10.8v-16l-2.4-0.1v-7.8h17.7v7.9h-1.9v18.5q0 1.6 0.7 2.3 0.7 0.8 2.1 0.8 1.4 0 2-0.8 0.8-0.7 0.8-2.3v-18.5h-1.9v-7.9h16.4v7.9h-2.4v16.1q0 7.4-4 10.7-4 3.3-11.4 3.3zm-1.3 0q-7.5 0-11.6-3.3-4.1-3.3-4.1-10.8v-16l-2.4-0.1v-7.8h17.8v7.9h-2v18.5q0 1.6 0.7 2.3 0.7 0.8 2.1 0.8 1.4 0 2.1-0.8 0.7-0.7 0.7-2.3v-18.5h-1.9v-7.9h16.5v7.9h-2.4l-0.1 16.1q0 7.4-4 10.7-3.9 3.3-11.4 3.3z"/>
</svg>